<?xml version="1.0" encoding="UTF-8" standalone="no"?>
<!-- Created with Inkscape (http://www.inkscape.org/) -->

<svg
   width="80.082298mm"
   height="80.000008mm"
   viewBox="0 0 80.082298 80.000008"
   version="1.1"
   id="svg1"
   xmlns="http://www.w3.org/2000/svg"
   xmlns:svg="http://www.w3.org/2000/svg">
  <defs
     id="defs1" />
  <g
     id="layer1"
     transform="translate(-66.50641,-95.774236)">
    <ellipse
       style="fill:#6d6f62;fill-opacity:1;fill-rule:evenodd;stroke-width:0;stroke-linejoin:bevel"
       id="path1-1-3"
       cy="64.330742"
       cx="160.12437"
       transform="rotate(29.999997)"
       rx="39.999996"
       ry="40.000004" />
    <ellipse
       style="fill:#2d2c2e;fill-opacity:1;fill-rule:evenodd;stroke-width:0;stroke-linejoin:bevel"
       id="path2-4"
       cy="64.330742"
       cx="160.12437"
       transform="rotate(29.999997)"
       rx="9.999999"
       ry="10.000001" />
    <path
       style="fill:#2d2c2e;fill-opacity:1;fill-rule:evenodd;stroke-width:0;stroke-linejoin:bevel"
       d="m 136.52956,158.88053 -23.24491,-9.95843 c 0,0 5.1585,-2.91721 6.585,-5.46112 1.37707,-2.45582 1.41259,-8.3902 1.41259,-8.3902 l 20.25002,15.14836 z"
       id="path13-4-93-8-4-6" />
    <path
       style="fill:#2d2c2e;fill-opacity:1;fill-rule:evenodd;stroke-width:0;stroke-linejoin:bevel"
       d="m 71.484062,150.222 20.246677,-15.15146 c 0,0 -0.05289,5.926 1.437018,8.43335 1.438214,2.42048 6.55983,5.41845 6.55983,5.41845 l -23.243914,9.96283 z"
       id="path13-4-93-8-7-1" />
    <path
       style="fill:#2d2c2e;fill-opacity:1;fill-rule:evenodd;stroke-width:0;stroke-linejoin:bevel"
       d="m 111.50532,98.220208 2.99821,25.109872 c 0,0 -5.10559,-3.00878 -8.02199,-2.9722 -2.81533,0.0353 -7.972431,2.97178 -7.972431,2.97178 l 2.993881,-25.111232 z"
       id="path13-4-93-8-2-5" />
    <ellipse
       style="fill:#3c3b3d;fill-opacity:1;fill-rule:evenodd;stroke-width:0;stroke-linejoin:bevel"
       id="path67-6"
       cx="160.12437"
       cy="64.330742"
       transform="rotate(29.999997)"
       rx="4.9999995"
       ry="5.0000005" />
    <path
       style="fill:#2d2c2e;fill-opacity:1;fill-rule:evenodd;stroke-width:0;stroke-linejoin:bevel"
       d="m 149.99093,144.06719 0.006,26.7246 a 0.62136627,0.62136627 134.76453 0 1 -0.61639,0.62148 l -1.67758,0.0134 a 0.61189643,0.61189643 44.75813 0 1 -0.61679,-0.6116 l -0.008,-19.32151 c -1.5e-4,-0.3405 0.13,-0.85991 0.2874,-1.16186 0.93284,-1.7894 1.23374,-2.6691 2.5009,-7.81021 0.0815,-0.33054 0.1432,-0.32257 0.13826,0.0179 l -0.004,0.29476 a 83.811803,83.811803 90.409181 0 0 -0.009,1.23302 z"
       id="path91"
       transform="matrix(0,1.3505649,0.85801591,0,-0.49820325,-29.1735)" />
  </g>
</svg>
