<?xml version="1.0" encoding="UTF-8" standalone="no"?>
<!-- Created with Inkscape (http://www.inkscape.org/) -->

<svg
   width="199.90654mm"
   height="32.367188mm"
   viewBox="0 0 199.90654 32.367188"
   version="1.1"
   id="svg1"
   xmlns="http://www.w3.org/2000/svg"
   xmlns:svg="http://www.w3.org/2000/svg">
  <defs
     id="defs1" />
  <g
     id="layer1"
     transform="translate(-5.0243779,-109.72384)">
    <path
       d="m 27.614901,111.70426 h -1.640477 l -0.546826,1.64048 c -2.551853,-1.54934 -5.149274,-2.23287 -8.612503,-2.23287 -3.007541,0 -5.422688,0.7291 -7.2910085,2.1873 -1.9594585,1.54934 -3.1442473,3.78221 -3.1442473,5.96952 0,1.77718 0.7746696,3.69107 2.0050273,4.92143 1.4126328,1.41263 3.8277795,2.50628 7.3821455,3.41766 l 6.10622,1.54934 c 4.511311,1.09365 6.06065,2.46071 6.06065,5.19484 0,3.87335 -3.554366,6.78975 -8.202384,6.78975 -2.27844,0 -4.648018,-0.7291 -6.744183,-2.00503 -2.64299,-1.68604 -4.4657421,-3.78221 -6.334063,-7.38214 l -1.6860457,0.54682 2.9619722,10.43526 h 1.6860456 l 0.8658069,-2.27844 c 2.779697,1.95946 5.741669,2.87083 9.432742,2.87083 7.108733,0 12.668127,-4.28346 12.668127,-9.79729 0,-1.68605 -0.410119,-3.32652 -1.093651,-4.42017 -1.367064,-2.18731 -3.645504,-3.41766 -8.566935,-4.60245 l -5.6961,-1.36707 c -4.420174,-1.09365 -6.197357,-2.50628 -6.197357,-4.967 0,-2.73412 2.916403,-4.87586 6.653045,-4.87586 4.420174,0 8.065678,2.32401 11.255494,7.19987 l 1.458202,-0.54682 z m 16.222487,17.77184 h 6.425201 c 3.007541,0 5.741669,-0.63797 7.518853,-1.73162 2.369577,-1.4582 3.918917,-4.3746 3.918917,-7.33657 0,-5.37712 -4.374605,-8.70365 -11.392201,-8.70365 H 35.179316 v 1.41264 l 1.13922,0.1367 c 2.369578,0.27342 2.916403,1.18479 2.961972,5.01257 v 17.90854 c -0.04557,3.82778 -0.592394,4.73916 -2.961972,5.01257 l -1.13922,0.13671 v 1.41263 h 13.30609 v -1.41263 l -1.686046,-0.13671 c -2.369577,-0.27341 -2.916403,-1.18479 -2.961972,-5.01257 z m 0,-1.95946 v -10.98208 c 0,-2.46072 0.820239,-2.91641 5.194844,-2.91641 3.098678,0 4.966999,0.5924 6.288494,2.0506 1.13922,1.23036 1.731615,2.9164 1.731615,4.87586 0,1.95946 -0.592395,3.55437 -1.731615,4.83029 -1.367064,1.54934 -3.053109,2.14174 -5.787237,2.14174 z m 36.956311,-16.40477 c -9.159329,0 -16.404769,7.06316 -16.404769,15.99465 0,9.2049 7.017596,16.22249 16.222494,16.22249 5.012568,0 9.933999,-2.27844 12.94154,-5.96951 2.232871,-2.73413 3.372091,-6.15179 3.372091,-10.02514 0,-9.38717 -6.789752,-16.22249 -16.131356,-16.22249 z m -0.09114,2.1873 c 6.653045,0 10.845375,5.51383 10.845375,14.30861 0,8.24795 -4.283467,13.53393 -10.890943,13.53393 -6.653045,0 -10.890944,-5.42269 -10.890944,-13.98962 0,-8.38466 4.329036,-13.85292 10.936512,-13.85292 z m 28.207051,11.75675 v -6.78975 c 0.0456,-3.82778 0.5924,-4.73915 2.96198,-5.01257 l 1.13922,-0.1367 v -1.41264 h -12.75927 v 1.41264 l 1.13922,0.1367 c 2.36958,0.27342 2.9164,1.18479 2.96197,5.01257 v 17.90854 c -0.0456,3.82778 -0.59239,4.73916 -2.96197,5.01257 l -1.13922,0.13671 v 1.41263 h 12.75927 v -1.41263 l -1.13922,-0.13671 c -2.36958,-0.27341 -2.91641,-1.18479 -2.96198,-5.01257 v -9.15933 h 16.31363 v 9.15933 c -0.0456,3.82778 -0.59239,4.73916 -2.96197,5.01257 l -1.13922,0.13671 v 1.41263 h 12.75927 v -1.41263 l -1.13922,-0.13671 c -2.36958,-0.27341 -2.91641,-1.18479 -2.96197,-5.01257 v -17.90854 c 0.0456,-3.82778 0.59239,-4.73915 2.96197,-5.01257 l 1.13922,-0.1367 v -1.41264 h -12.75927 v 1.41264 l 1.13922,0.1367 c 2.36958,0.27342 2.91641,1.18479 2.96197,5.01257 v 6.78975 z m 46.16116,-13.35166 h -4.2379 l -7.83783,20.09585 c -3.05311,7.79226 -3.78221,8.84034 -6.83532,9.43274 l -0.50126,0.0911 v 1.41263 h 12.21244 v -1.41263 c -1.64047,-0.22785 -2.41514,-0.41012 -2.9164,-0.72911 -0.68353,-0.45568 -1.13922,-1.27592 -1.13922,-2.09616 0,-0.68353 0.31898,-1.91389 0.86581,-3.37209 l 1.4582,-3.91892 h 11.75675 l 2.27844,5.87838 c 0.31898,0.82024 0.50126,1.5949 0.50126,1.95946 0,1.27592 -0.91138,1.91388 -3.23539,2.23287 l -0.36455,0.0456 v 1.41263 h 12.80483 v -1.41263 c -2.96197,-0.45569 -3.50879,-0.95695 -5.14927,-5.19485 z m -8.24795,17.54399 5.05814,-13.67064 5.19484,13.67064 z m 22.92112,13.48837 h 13.89849 c 7.06316,0 10.84537,-1.00252 14.03519,-3.78221 3.05311,-2.64299 4.92143,-7.0176 4.92143,-11.48334 0,-4.32904 -1.77718,-8.84035 -4.55688,-11.48334 -3.14425,-2.96197 -7.51885,-4.28347 -14.39974,-4.28347 h -13.89849 v 1.41264 l 1.13922,0.1367 c 2.36958,0.27342 2.91641,1.18479 2.96197,5.01257 v 17.90854 c -0.0456,3.82778 -0.59239,4.73916 -2.96197,5.01257 l -1.13922,0.13671 z m 8.65808,-24.97171 c 0,-1.73161 0.1367,-2.59742 0.54682,-3.05311 0.54683,-0.68353 2.55185,-1.13922 4.87586,-1.13922 4.967,0 8.65807,1.64048 10.89095,4.8303 1.64047,2.27844 2.50628,5.37712 2.50628,8.74921 0,3.69107 -1.04808,7.10873 -2.9164,9.43274 -2.18731,2.7797 -5.87838,4.28347 -10.48083,4.28347 -2.27844,0 -4.14676,-0.41012 -4.78472,-1.00252 -0.50126,-0.45568 -0.63796,-1.18479 -0.63796,-3.00754 z"
       id="text1"
       style="font-size:45.5688px;font-family:'URW Bookman';-inkscape-font-specification:'URW Bookman, Normal';fill:#6d6f62;fill-rule:evenodd;stroke-width:0;stroke-linejoin:bevel"
       aria-label="SPOHAD"
       transform="scale(1.0115098,0.98862118)" />
    <path
       id="path1-1"
       style="fill:#6d6f62;fill-rule:evenodd;stroke-width:0;stroke-linejoin:bevel"
       transform="matrix(0.87186605,0.48974441,-0.51032616,0.85998094,0,0)"
       d="M 150.96015,69.847298 A 16.522486,16.297342 0 0 1 134.43767,86.14464 16.522486,16.297342 0 0 1 117.91518,69.847298 16.522486,16.297342 0 0 1 134.43767,53.549955 16.522486,16.297342 0 0 1 150.96015,69.847298 Z" />
    <path
       id="path2"
       style="fill:#2d2c2e;fill-rule:evenodd;stroke-width:0;stroke-linejoin:bevel"
       transform="matrix(0.87186605,0.48974441,-0.51032616,0.85998094,0,0)"
       d="m 138.56829,69.847298 a 4.1306214,4.0743356 0 0 1 -4.13062,4.074335 4.1306214,4.0743356 0 0 1 -4.13062,-4.074335 4.1306214,4.0743356 0 0 1 4.13062,-4.074336 4.1306214,4.0743356 0 0 1 4.13062,4.074336 z" />
    <path
       style="fill:#2d2c2e;fill-opacity:1;fill-rule:evenodd;stroke-width:0;stroke-linejoin:bevel"
       d="m 94.051803,135.25601 -9.666347,-4.02908 c 0,0 2.145146,-1.18027 2.738356,-2.20951 0.572649,-0.9936 0.587424,-3.39459 0.587424,-3.39459 l 8.420931,6.12887 z"
       id="path13-4-93-8-4" />
    <path
       style="fill:#2d2c2e;fill-opacity:1;fill-rule:evenodd;stroke-width:0;stroke-linejoin:bevel"
       d="m 67.002758,131.75286 8.419542,-6.13013 c 0,0 -0.02199,2.3976 0.597579,3.41205 0.598087,0.9793 2.727896,2.19225 2.727896,2.19225 l -9.665935,4.03086 z"
       id="path13-4-93-8-7" />
    <path
       style="fill:#2d2c2e;fill-opacity:1;fill-rule:evenodd;stroke-width:0;stroke-linejoin:bevel"
       d="m 83.645521,110.71346 1.246798,10.1592 c 0,0 -2.123147,-1.21732 -3.335931,-1.20252 -1.170741,0.0143 -3.315319,1.20235 -3.315319,1.20235 l 1.245007,-10.15975 z"
       id="path13-4-93-8-2" />
    <path
       id="path67"
       style="fill:#3c3b3d;fill-rule:evenodd;stroke-width:0;stroke-linejoin:bevel"
       transform="matrix(0.87186605,0.48974441,-0.51032616,0.85998094,0,0)"
       d="m 136.50298,69.847298 a 2.0653107,2.0371678 0 0 1 -2.06531,2.037167 2.0653107,2.0371678 0 0 1 -2.06531,-2.037167 2.0653107,2.0371678 0 0 1 2.06531,-2.037168 2.0653107,2.0371678 0 0 1 2.06531,2.037168 z" />
    <path
       style="fill:#2d2c2e;fill-opacity:1;fill-rule:evenodd;stroke-width:0;stroke-linejoin:bevel"
       d="m 149.99105,144.06719 0.0109,26.43932 a 0.62046506,0.62046506 134.7948 0 1 -0.61628,0.6207 l -1.65537,0.0112 a 0.6135061,0.6135061 44.754719 0 1 -0.61765,-0.61238 l -0.0345,-19.03241 c -6.2e-4,-0.3405 0.12915,-0.85991 0.28655,-1.16186 0.93284,-1.7894 1.23374,-2.6691 2.5009,-7.81021 0.0815,-0.33054 0.14322,-0.32257 0.13831,0.0179 l -0.004,0.29474 a 83.102586,83.102586 90.40147 0 0 -0.009,1.23302 z"
       id="path91"
       transform="matrix(0,0.54642479,0.36427686,0,35.885876,59.15729)" />
  </g>
</svg>
